<svg xmlns="http://www.w3.org/2000/svg" width="21.37" height="23.218" viewBox="0 0 21.37 23.218">
  <g id="search" transform="translate(0.645 1)">
    <path id="Elipse_125" data-name="Elipse 125" d="M8.951-1A9.951,9.951,0,1,1-1,8.951,9.962,9.962,0,0,1,8.951-1Zm0,17.69A7.739,7.739,0,1,0,1.211,8.951,7.748,7.748,0,0,0,8.951,16.69Z" transform="translate(0.355)" fill="#1b0c3f"/>
    <path id="Línea_456" data-name="Línea 456" d="M4.915,6.021A1.1,1.1,0,0,1,4.133,5.7L-.676.887A1.106,1.106,0,0,1,.887-.676L5.7,4.133a1.106,1.106,0,0,1-.782,1.887Z" transform="translate(14.704 16.197)" fill="#1b0c3f"/>
  </g>
</svg>
